<?xml version="1.0" encoding="UTF-8"?>
<!DOCTYPE svg PUBLIC "-//W3C//DTD SVG 1.0//EN" "http://www.w3.org/TR/2001/REC-SVG-20010904/DTD/svg10.dtd">
<!-- Creator: CorelDRAW 2020 (64-Bit) -->
<svg xmlns="http://www.w3.org/2000/svg" xml:space="preserve" width="180mm" height="180mm" version="1.0" style="shape-rendering:geometricPrecision; text-rendering:geometricPrecision; image-rendering:optimizeQuality; fill-rule:evenodd; clip-rule:evenodd"
viewBox="0 0 18000 18000"
 xmlns:xlink="http://www.w3.org/1999/xlink"
 xmlns:xodm="http://www.corel.com/coreldraw/odm/2003">
 <defs>
  <style type="text/css">
   <![CDATA[
    .str1 {stroke:black;stroke-width:400;stroke-linecap:round;stroke-miterlimit:22.9256}
    .str0 {stroke:white;stroke-width:1500;stroke-linecap:round;stroke-miterlimit:22.9256}
    .fil0 {fill:none}
    .fil3 {fill:black}
    .fil2 {fill:white}
    .fil1 {fill:black;fill-rule:nonzero}
   ]]>
  </style>
 </defs>
 <g id="Capa_x0020_1">
  <metadata id="CorelCorpID_0Corel-Layer"/>
  <g id="_3105070590592">
   <path class="fil0" d="M8999.93 1095.46c4253.37,0 7701.41,3448.04 7701.41,7701.41 0,4253.37 -3448.04,7701.41 -7701.41,7701.41 -4253.37,0 -7701.41,-3448.04 -7701.41,-7701.41 0,-4253.37 3448.04,-7701.41 7701.41,-7701.41z"/>
   <path class="fil1" d="M2645.39 5889.31l170.39 97.3c115.66,-80.21 221.9,-205.11 318.73,-374.67 96.82,-169.55 142.92,-312.41 138.3,-428.57 -4.62,-116.15 -55.91,-202.19 -153.85,-258.12 -97.96,-55.94 -193.83,-57.21 -287.63,-3.8 -93.8,53.4 -207.87,158.54 -342.2,315.42 -134.34,156.87 -254.63,263.36 -360.9,319.47 -106.26,56.12 -219.48,49.86 -339.65,-18.77 -258.45,-147.58 -278.16,-413.16 -59.13,-796.72 116.56,-204.14 249.95,-351.72 400.18,-442.76 28.91,-16.23 53.24,-18.71 73,-7.43l202.48 115.62c16.47,9.41 26.29,23.74 29.47,43.03 3.18,19.27 -0.4,37.97 -10.74,56.07 -10.35,18.12 -24.63,30.7 -42.84,37.76 -18.23,7.06 -35.57,5.89 -52.03,-3.51l-170.38 -97.3c-117.55,83.5 -220.73,203.05 -309.57,358.61 -88.83,155.56 -131.47,281.85 -127.91,378.84 3.55,96.99 51.42,171.81 143.61,224.45 87.25,49.83 178.6,40.87 274.04,-26.89 67,-44.69 141.93,-113.78 224.79,-207.28 82.85,-93.48 142.73,-159.16 179.64,-197.03 36.9,-37.87 84.21,-79.62 141.93,-125.25 57.71,-45.63 110.77,-76.45 159.2,-92.45 48.44,-16.01 103.99,-22.49 166.65,-19.45 62.67,3.04 125.28,22.42 187.83,58.14 128.41,73.32 199.69,185.51 213.84,336.58 14.15,151.07 -36.11,327.03 -150.8,527.87 -52.64,92.19 -119.8,185.91 -201.49,281.16 -81.68,95.25 -155.31,160.17 -220.9,194.75 -25.39,13.88 -47.96,15.18 -67.72,3.9l-202.48 -115.63c-16.47,-9.4 -26.29,-23.73 -29.47,-43.02 -3.18,-19.27 0.4,-37.97 10.75,-56.08 10.34,-18.11 24.62,-30.69 42.83,-37.75 18.22,-7.06 35.57,-5.89 52.03,3.51zm1133.53 -1304.97l-1096.75 -966.12 -110.89 125.9c-12.53,14.22 -27.49,21.89 -44.88,22.99 -17.4,1.09 -33.21,-4.62 -47.43,-17.15 -14.22,-12.53 -22.24,-27.8 -24.05,-45.82 -1.82,-18.02 3.54,-34.14 16.07,-48.37l323.29 -367c12.53,-14.23 27.85,-21.58 45.95,-22.05 18.11,-0.47 34.27,5.55 48.49,18.09 14.22,12.52 21.89,27.48 23,44.88 1.1,17.39 -4.62,33.19 -17.15,47.42l-110.9 125.89 1096.75 966.11 110.89 -125.89c12.53,-14.22 27.5,-21.89 44.89,-22.98 17.39,-1.1 33.2,4.61 47.42,17.14 14.22,12.53 22.25,27.81 24.06,45.82 1.82,18.02 -3.55,34.14 -16.08,48.37l-323.29 367c-12.53,14.23 -27.85,21.58 -45.95,22.05 -18.1,0.48 -34.27,-5.56 -48.49,-18.09 -14.22,-12.52 -21.89,-27.49 -22.99,-44.87 -1.11,-17.4 4.61,-33.21 17.14,-47.43l110.9 -125.89zm686.88 -628.01c11.69,14.93 15.37,31.91 11.03,50.96 -4.34,19.06 -14.72,35.02 -31.13,47.88 -16.41,12.85 -34.4,19.1 -53.94,18.76 -19.54,-0.35 -35.15,-7.98 -46.84,-22.91l-960.91 -1226.71 -123.12 96.44c-16.42,12.86 -34.69,18.74 -54.81,17.64 -20.13,-1.09 -36.03,-9.1 -47.72,-24.02 -11.69,-14.92 -15.73,-31.62 -12.14,-50.09 3.6,-18.47 14.34,-34.71 32.25,-48.74l174.6 -136.77c23.88,-18.71 48.38,-25.86 73.51,-21.45l1761.26 440.85 -818.88 -1045.4 -132.08 103.46c-14.92,11.68 -31.03,16.48 -48.32,14.38 -17.31,-2.11 -31.81,-10.62 -43.49,-25.54 -11.69,-14.92 -16.78,-31.4 -15.25,-49.45 1.51,-18.05 9.73,-32.92 24.65,-44.6l385.03 -301.61c14.92,-11.69 31.33,-16.11 49.21,-13.26 17.89,2.85 32.67,11.73 44.36,26.66 11.69,14.91 16.48,31.03 14.38,48.34 -2.1,17.29 -10.61,31.78 -25.53,43.47l-132.08 103.46 955.66 1219.99c30.39,38.8 26.19,73.41 -12.61,103.81 -20.9,16.36 -46.98,19.94 -78.27,10.74l-1753.3 -439.88 864.48 1103.59zm2246.45 -2927.44l-158.65 934.11 794.8 -230.26 -636.15 -703.85zm-288.33 -126.66l243.07 -70.42c29.14,-8.44 52.34,-3.31 69.59,15.37l1225.55 1338.34c5.75,6.23 9.94,13.9 12.58,23 8.96,30.95 0.47,56.11 -25.5,75.48 -9.87,6.81 -19.36,11.53 -28.46,14.17 -30.96,8.97 -55.33,3.19 -73.11,-17.31l-402.77 -439.89 -914.95 265.07 -105.25 587.07c-5.85,41.16 -33.89,60.14 -84.17,56.95 -32.3,-2.49 -52.66,-18.3 -61.1,-47.43 -2.11,-7.29 -2.67,-16 -1.66,-26.16l300.81 -1679.89 -117.44 34.02c-18.21,5.28 -34.95,3.71 -50.21,-4.69 -15.26,-8.42 -25.54,-21.72 -30.81,-39.92 -5.28,-18.21 -3.84,-35.4 4.3,-51.58 8.14,-16.17 21.32,-26.9 39.53,-32.18zm3138.05 960.9l4.7 287.15c0.31,18.96 -7.01,35.2 -21.95,48.72 -14.96,13.52 -33.79,20.46 -56.54,20.83l-1313.55 21.49c-20.84,0.34 -38.96,-5.99 -54.34,-19.01 -15.39,-13.02 -23.23,-29.01 -23.54,-47.97 -2.86,-174.38 66.54,-336.67 208.17,-486.87 70.79,-77 139.85,-143.54 207.18,-199.62 67.34,-56.09 151.6,-120.98 252.77,-194.68l81.48 -61.06c95.52,-71.72 171.78,-132.68 228.79,-182.91 57.01,-50.23 113.78,-114.2 170.33,-191.91 56.56,-77.71 90.86,-154.58 102.88,-230.62l-1094.62 17.91 3.63 221.78c0.31,18.94 -7.01,34.7 -21.98,47.27 -14.96,12.58 -32.86,19.03 -53.72,19.37 -20.85,0.34 -38.96,-5.52 -54.32,-17.6 -15.37,-12.07 -23.2,-27.58 -23.51,-46.53l-4.75 -290.01c-0.28,-17.06 7.06,-32.34 22.01,-45.86 14.94,-13.52 32.84,-20.45 53.68,-20.79l1251.01 -20.47c20.84,-0.34 39.43,5.99 55.75,19 16.34,13 24.64,28.03 24.92,45.09 2.6,159.22 -64.11,311.04 -200.15,455.46 -68.96,73.17 -128.67,131.51 -179.15,174.99 -50.49,43.49 -117.86,97.2 -202.13,161.15l-140.43 107.52c-101.15,75.59 -181.15,139.47 -240.03,191.63 -58.86,52.15 -118.88,120.91 -180.06,206.28 -61.17,85.38 -97.7,169.87 -109.6,253.48l1157.17 -18.93 -3.63 -221.76c-0.31,-18.96 7.02,-34.72 21.97,-47.29 14.97,-12.57 32.88,-19.03 53.72,-19.37 20.85,-0.34 38.96,5.53 54.33,17.6 15.36,12.07 23.2,27.59 23.51,46.54zm1769.71 -1048.86l241.22 54.9c48.06,10.94 67.04,38.59 56.94,82.95l-248.64 1092.43c-38.7,170.05 -133.64,290.37 -284.82,360.94 -151.19,70.57 -321.05,84.41 -509.59,41.5 -188.54,-42.91 -332.02,-130 -430.47,-261.28 -98.44,-131.28 -129.14,-278.25 -92.12,-440.91l234.12 -1028.65 -163.58 -37.24c-18.49,-4.2 -32.37,-13.68 -41.65,-28.43 -9.28,-14.75 -11.81,-31.37 -7.61,-49.85 4.21,-18.49 13.79,-32.83 28.75,-43.03 14.96,-10.21 31.68,-13.21 50.17,-9l241.22 54.9c18.48,4.2 33.64,14.46 45.48,30.77 11.85,16.3 15.67,33.7 11.46,52.18l-248.63 1092.43c-28.61,125.68 -4.72,238.54 71.67,338.55 76.39,100.02 189.45,167.06 339.17,201.14 149.72,34.08 281.12,22.67 394.19,-34.22 113.08,-56.9 183.92,-148.19 212.52,-273.88l234.12 -1028.65 -163.58 -37.24c-18.49,-4.2 -32.36,-13.68 -41.65,-28.43 -9.28,-14.75 -11.81,-31.37 -7.61,-49.85 4.21,-18.49 13.79,-32.83 28.75,-43.03 14.97,-10.21 31.68,-13.21 50.17,-9zm1635.44 2288.81c20.93,-9.89 38.79,-10.6 53.62,-2.14 14.81,8.46 26.86,24.62 36.15,48.49 9.3,23.86 10.19,42.38 2.67,55.54 -7.52,13.18 -19.52,22.7 -35.97,28.59 -233.22,87.3 -470.83,61.86 -712.83,-76.32 -214,-122.21 -347.84,-293.05 -401.52,-512.53 -53.67,-219.49 -14.71,-444.46 116.9,-674.93 131.6,-230.46 306.03,-379.18 523.27,-446.14 217.25,-66.96 428.34,-41.92 633.29,75.11 204.96,117.04 353.19,254.07 444.7,411.12 17.17,27.26 19.65,51.6 7.43,73l-121.27 212.36c-9.39,16.46 -23.73,26.28 -43.02,29.46 -19.27,3.19 -37.97,-0.39 -56.07,-10.73 -18.12,-10.35 -30.7,-24.63 -37.76,-42.85 -7.06,-18.22 -5.89,-35.56 3.51,-52.02l104.35 -182.73c-89.86,-125.53 -208.04,-230.13 -354.56,-313.8 -176.14,-100.58 -353.97,-120.81 -533.48,-60.68 -179.5,60.13 -324.72,187.32 -435.64,381.58 -110.92,194.25 -146.67,383.95 -107.23,569.1 39.44,185.16 153.41,331.56 341.9,439.19 188.48,107.63 379.01,124.75 571.56,51.33zm1719.51 -69.73l-885.83 336.21 601.03 568.76 284.8 -904.97zm-36.79 -312.77l183.82 173.94c22.03,20.85 29.36,43.45 21.99,67.79l-533.46 1734.51c-2.46,8.12 -6.95,15.62 -13.47,22.5 -22.14,23.41 -48.14,28.82 -77.99,16.24 -10.87,-5.07 -19.75,-10.86 -26.63,-17.37 -23.41,-22.15 -30.77,-46.09 -22.1,-71.81l175.36 -570.06 -691.89 -654.74 -559.53 206.52c-38.45,15.81 -69.02,1.24 -91.73,-43.73 -14.21,-29.12 -10.89,-54.68 9.96,-76.71 5.21,-5.51 12.45,-10.4 21.72,-14.68l1600.9 -591.28 -88.81 -84.05c-13.77,-13.03 -20.9,-28.25 -21.38,-45.67 -0.47,-17.42 5.8,-33.02 18.82,-46.79 13.03,-13.77 28.59,-21.23 46.66,-22.4 18.07,-1.17 33.99,4.76 47.76,17.79zm1223.76 1645.98l-698.41 394 279.43 495.33c153.68,272.43 347.76,342.51 582.21,210.25 123.83,-69.86 193.25,-154.19 208.26,-252.98 15.01,-98.79 -15.68,-215.88 -92.06,-351.27l-279.43 -495.33zm-812.34 458.27l-544.86 307.37c-16.51,9.31 -33.86,10.4 -52.04,3.25 -18.18,-7.16 -32.4,-19.82 -42.65,-37.98 -10.24,-18.16 -13.72,-36.88 -10.44,-56.14 3.28,-19.27 13.17,-33.55 29.69,-42.87l1357.19 -765.63 -83.82 -148.6c-9.32,-16.51 -11.64,-33.16 -6.96,-49.95 4.68,-16.78 15.28,-29.83 31.78,-39.15 16.52,-9.31 33.57,-11.86 51.19,-7.65 17.61,4.21 31.07,14.57 40.39,31.08l438.7 777.66c203.99,361.59 151.6,629.48 -157.16,803.66 -222.89,125.74 -421.95,108.54 -597.19,-51.62l-372.05 631.05c-4.75,7.03 -11.25,12.87 -19.51,17.53 -23.11,13.04 -44.97,12.86 -65.6,-0.54 -20.61,-13.4 -35.11,-27.53 -43.5,-42.39 -8.38,-14.85 -6.75,-33.19 4.89,-54.99l390.6 -667.63c-27.52,-41.06 -50.59,-78.11 -69.22,-111.14l-279.43 -495.32z"/>
   <path class="fil1" d="M3545.32 13456.04l-914.17 249.02 543.24 624.19 370.93 -873.21zm-6.38 -314.87l166.14 190.9c19.91,22.88 25.02,46.08 15.33,69.59l-698.59 1674.84c-3.24,7.84 -8.43,14.87 -15.58,21.09 -24.31,21.15 -50.7,24.03 -79.2,8.62 -10.33,-6.09 -18.61,-12.71 -24.83,-19.86 -21.16,-24.31 -26.17,-48.85 -15.05,-73.61l229.63 -550.44 -625.37 -718.55 -576.87 151.49c-39.8,12.01 -68.82,-5.45 -87.07,-52.4 -11.33,-30.35 -5.55,-55.48 17.32,-75.39 5.72,-4.98 13.4,-9.15 23.04,-12.51l1650.55 -433.79 -80.27 -92.23c-12.45,-14.31 -18.07,-30.15 -16.86,-47.53 1.21,-17.39 8.96,-32.31 23.25,-44.75 14.3,-12.45 30.51,-18.37 48.6,-17.79 18.1,0.58 33.38,8.02 45.83,22.32zm921.13 3059.97l66.04 -92.6c-188.19,12.48 -360.23,-36.85 -516.12,-148.02 -200.64,-143.08 -313.67,-329.05 -339.08,-557.89 -25.41,-228.83 37.56,-449.36 188.9,-661.59 151.34,-212.22 338.78,-338.74 562.31,-379.58 223.54,-40.83 428.68,5.36 615.44,138.54 186.76,133.18 320.31,285.45 400.65,456.84 15.9,29.96 16.69,54.97 2.38,75.03l-141.99 199.11c-11.01,15.44 -26.26,23.77 -45.76,24.99 -19.5,1.23 -37.74,-4.21 -54.72,-16.32 -16.98,-12.11 -28.07,-27.58 -33.26,-46.41 -5.19,-18.84 -2.28,-35.98 8.72,-51.41l120.53 -169.01c-76.14,-138.11 -182.12,-255.61 -317.94,-352.46 -166.69,-118.88 -341.8,-158.18 -525.34,-117.94 -183.54,40.26 -340.25,151.44 -470.13,333.56 -129.88,182.14 -184.66,368.34 -164.35,558.61 20.3,190.28 109.95,342.1 268.93,455.47 158.97,113.36 332.88,161.71 521.72,145.04l247.65 -347.28 -347.27 -247.64c-15.44,-11.01 -24.59,-25.12 -27.47,-42.3 -2.87,-17.18 1.19,-33.49 12.2,-48.93 11,-15.43 25.38,-24.98 43.11,-28.63 17.74,-3.65 34.32,0.03 49.76,11.04l412.1 293.88c40.13,28.62 47.53,60.67 22.22,96.17l-434.21 608.88c-11.01,15.44 -26.26,23.77 -45.76,25 -19.5,1.23 -37.75,-4.21 -54.73,-16.31 -16.98,-12.11 -28.05,-27.59 -33.25,-46.43 -5.2,-18.84 -2.29,-35.97 8.72,-51.41zm1588.1 -929.83l-298.38 744.3 527.87 211.62c290.33,116.39 485.59,49.65 585.75,-200.2 52.9,-131.97 54.3,-241.2 4.21,-327.65 -50.1,-86.46 -147.29,-158.61 -291.58,-216.45l-527.87 -211.62zm-347.05 865.71l-232.78 580.66c-7.05,17.6 -19.91,29.3 -38.56,35.09 -18.67,5.79 -37.68,4.82 -57.03,-2.94 -19.35,-7.76 -33.78,-20.19 -43.27,-37.27 -9.5,-17.08 -10.72,-34.41 -3.66,-52.01l579.82 -1446.37 -158.36 -63.48c-17.6,-7.06 -29.82,-18.6 -36.67,-34.62 -6.85,-16.02 -6.75,-32.83 0.3,-50.42 7.06,-17.6 18.77,-30.26 35.14,-38 16.38,-7.73 33.36,-8.07 50.96,-1.02l828.76 332.24c385.35,154.47 512.07,396.24 380.16,725.28 -95.22,237.54 -261.28,348.65 -498.18,333.33l104.53 725.07c0.69,8.46 -0.73,17.08 -4.26,25.88 -9.87,24.63 -27.04,38.17 -51.51,40.62 -24.46,2.44 -44.62,0.49 -60.45,-5.86 -15.84,-6.34 -26.04,-21.67 -30.59,-45.96l-112.95 -765.2c-47.16,-14.82 -88.33,-29.29 -123.53,-43.4l-527.87 -211.62zm1722.61 -507.27l1323.94 160.52c48.93,5.94 70.65,31.49 65.17,76.66l-28.06 231.47c-2.28,18.81 -11.69,33.43 -28.24,43.84 -16.53,10.41 -35.15,14.35 -55.86,11.84 -20.7,-2.51 -37.83,-10.79 -51.4,-24.85 -13.58,-14.06 -19.22,-30.5 -16.94,-49.31l20.2 -166.55 -925.91 -112.27 -79.41 654.91 796.05 96.52 12.67 -104.45c2.28,-18.82 11.22,-33.49 26.82,-44.01 15.6,-10.52 33.74,-14.52 54.45,-12.01 20.7,2.51 37.37,10.73 49.99,24.67 12.64,13.95 17.81,30.33 15.53,49.15l-41.76 344.39c-2.28,18.82 -11.22,33.49 -26.82,44.01 -15.59,10.52 -33.74,14.53 -54.44,12.02 -20.71,-2.51 -37.37,-10.74 -50,-24.69 -12.64,-13.94 -17.81,-30.32 -15.53,-49.14l13 -107.27 -796.04 -96.52 -80.44 663.38 1002.12 121.5c22.59,2.74 40.2,11.08 52.82,25.03 12.64,13.94 17.81,30.33 15.53,49.14 -2.28,18.82 -11.75,33.91 -28.4,45.26 -16.65,11.35 -35.33,15.76 -56.03,13.25l-1083.99 -131.43c-47.04,-5.71 -68.06,-29.26 -63.04,-70.66l184.48 -1521.53 -166.55 -20.19c-18.81,-2.29 -33.59,-10.28 -44.35,-24 -10.75,-13.72 -14.98,-29.99 -12.7,-48.8 2.28,-18.82 10.34,-34.07 24.17,-45.77 13.83,-11.68 30.16,-16.39 48.97,-14.11zm3142.51 1705.49l-13.69 -112.92c-130.53,136.14 -290.83,215.73 -480.9,238.78 -244.65,29.66 -453.52,-31.42 -626.61,-183.26 -173.08,-151.83 -275.32,-357.13 -306.69,-615.9 -31.38,-258.75 21.7,-478.59 159.21,-659.49 137.52,-180.89 320.14,-285.14 547.85,-312.75 227.71,-27.61 429.02,-5.24 603.92,67.12 31.95,11.41 49.39,29.34 52.36,53.8l29.43 242.77c2.29,18.83 -3.36,35.27 -16.93,49.32 -13.57,14.06 -30.71,22.34 -51.41,24.85 -20.7,2.51 -39.32,-1.44 -55.86,-11.84 -16.54,-10.41 -25.95,-25.02 -28.23,-43.84l-24.98 -206.07c-149.36,-50.63 -306.85,-65.92 -472.46,-45.84 -203.25,24.64 -359.05,113.72 -467.43,267.21 -108.37,153.5 -149.11,341.28 -122.18,563.34 26.92,222.07 112.05,396.51 255.36,523.3 143.32,126.8 311.9,178.44 505.74,154.94 193.83,-23.5 354.85,-105.09 483.04,-244.75l-51.34 -423.43 -423.43 51.34c-18.82,2.28 -35.09,-1.96 -48.8,-12.71 -13.72,-10.75 -21.71,-25.53 -24,-44.35 -2.28,-18.82 1.9,-35.56 12.53,-50.22 10.63,-14.65 25.36,-23.12 44.18,-25.4l502.47 -60.92c48.94,-5.94 76.02,12.74 81.27,56.02l90.02 742.41c2.28,18.83 -3.36,35.27 -16.93,49.32 -13.58,14.06 -30.71,22.35 -51.41,24.86 -20.71,2.51 -39.32,-1.45 -55.87,-11.85 -16.54,-10.41 -25.95,-25.02 -28.23,-43.84zm981.42 -1832.3l-76.55 944.39 771.68 -298.72 -695.13 -645.67zm-298.28 -101.03l236 -91.35c28.29,-10.95 51.85,-7.87 70.66,9.23l1337.64 1226.32c6.27,5.71 11.11,12.98 14.54,21.82 11.63,30.05 5.36,55.85 -18.82,77.41 -9.24,7.65 -18.28,13.18 -27.11,16.6 -30.06,11.64 -54.84,8.01 -74.35,-10.86l-439.6 -403.07 -888.35 343.88 -53.63 594c-2.23,41.52 -28.51,62.88 -78.87,64.08 -32.4,0.34 -54.06,-13.63 -65.01,-41.92 -2.74,-7.07 -4.05,-15.7 -3.94,-25.91l153.11 -1699.73 -114.02 44.14c-17.69,6.85 -34.49,6.75 -50.43,-0.29 -15.94,-7.05 -27.34,-19.41 -34.18,-37.08 -6.85,-17.69 -6.91,-34.94 -0.21,-51.76 6.7,-16.82 18.89,-28.66 36.57,-35.51zm1442.12 -505.7l852.52 1187.19 353.39 -253.77c178.62,-128.26 281.03,-280.58 307.26,-456.94 26.22,-176.36 -27.29,-357.31 -160.53,-542.86 -133.25,-185.55 -289.59,-294.41 -469.06,-326.57 -179.46,-32.16 -356.19,14.23 -530.19,139.18l-353.39 253.77zm-124.72 89.56l-138.59 99.52c-15.4,11.05 -31.69,15.17 -48.89,12.35 -17.2,-2.83 -31.32,-11.94 -42.37,-27.33 -11.06,-15.4 -15.46,-32.08 -13.19,-50.04 2.27,-17.97 11.1,-32.49 26.5,-43.54l616.7 -442.85c209.41,-150.38 423.25,-207.66 641.5,-171.85 218.26,35.81 404.8,161.5 559.6,377.07 154.8,215.58 214.89,430.9 180.29,645.96 -34.61,215.05 -158.93,399.43 -372.96,553.13l-418.07 300.21c-40.03,28.75 -72.77,25.42 -98.2,-10l-892.32 -1242.63zm1895.97 -1538l379.76 868.05 538.23 -628.51 -917.99 -239.54zm-310.56 52.26l164.61 -192.22c19.73,-23.03 41.94,-31.48 66.61,-25.32l1758.85 446.72c8.23,2.06 15.94,6.18 23.14,12.34 24.47,20.96 31.17,46.65 20.09,77.09 -4.53,11.11 -9.87,20.27 -16.03,27.46 -20.96,24.48 -44.51,33.02 -70.62,25.64l-578.06 -146.86 -619.61 723.53 234.04 548.59c17.69,37.62 4.66,68.88 -39.13,93.78 -28.37,15.64 -54.07,13.59 -77.11,-6.14 -5.76,-4.93 -11.01,-11.91 -15.74,-20.95l-669.99 -1569.6 -79.53 92.88c-12.34,14.4 -27.19,22.27 -44.56,23.61 -17.38,1.34 -33.27,-4.15 -47.66,-16.47 -14.41,-12.33 -22.63,-27.5 -24.69,-45.49 -2.07,-17.99 3.06,-34.19 15.39,-48.59z"/>
   <g>
    <g>
     <path class="fil2" d="M7975.71 7391.88c-70.02,-61.41 -1628.4,-637.22 -1909.26,-752.69 -337.39,-138.68 -312.58,30.4 -487.5,250.27l-1042.59 1385.14c-434.43,653.25 -584.01,259.51 324.9,1489.74 555.84,752.33 322.94,638.48 1302.44,996.86l1154.03 462.6c254.06,94.18 276.99,95.93 498.61,-237.97 50.88,-76.68 111.87,-130.45 163.83,-204.39 77.72,-110.57 217,-296.05 294.71,-406.62 152.87,-217.48 780.24,-987.1 880.56,-1161.5 101.22,-175.97 27.79,-217.59 -93.69,-381.31 -188.42,-253.92 -347.02,-472.05 -538.05,-720.39l-547.99 -719.74z"/>
     <path class="fil3" d="M7059.33 8478.23l1253.66 504.66c154.36,63.93 290.01,100.14 437.99,179.3 -242.64,328.03 -1106.55,1510.58 -1318.07,1751.76l-1253.66 -504.66c-154.35,-63.92 -290,-100.13 -437.98,-179.3l1318.06 -1751.76zm-1179.28 -1434.05l894 1220.2 -976.55 1303.35c-81.42,126.47 -246.01,339.5 -341.52,448.41 -87.1,-121.45 -793.6,-1128.1 -894.01,-1220.2 138.62,-158.05 1300.4,-1694.5 1318.08,-1751.76zm1233.57 1081.85l-724.44 -998.81 1233.23 484.83c219.48,84.92 333.27,322.04 475.13,507.97 96.94,127.05 381.62,478.93 409.49,573.8l-696.38 -278.99c-85.07,-33.33 -659.35,-255.76 -697.03,-288.8zm862.09 -734.15c-70.02,-61.41 -1628.4,-637.22 -1909.26,-752.69 -337.39,-138.68 -312.58,30.4 -487.5,250.27l-1042.59 1385.14c-434.43,653.25 -584.01,259.51 324.9,1489.74 555.84,752.33 322.94,638.48 1302.44,996.86l1154.03 462.6c254.06,94.18 276.99,95.93 498.61,-237.97 50.88,-76.68 111.87,-130.45 163.83,-204.39 77.72,-110.57 217,-296.05 294.71,-406.62 152.87,-217.48 780.24,-987.1 880.56,-1161.5 101.22,-175.97 27.79,-217.59 -93.69,-381.31 -188.42,-253.92 -347.02,-472.05 -538.05,-720.39l-547.99 -719.74z"/>
    </g>
    <g>
     <path class="fil2" d="M11428.58 10022.73c-37.49,-85.25 -1206.4,-1265.83 -1412.13,-1489.19 -247.13,-268.31 -296.12,-104.59 -547.59,20.74l-1530.38 814.59c-669.83,408.38 -638.96,-11.69 -335.27,1487.43 185.72,916.78 22.77,715.15 758.97,1453.97l850.31 907.06c190.45,192.75 210.48,204.03 552.47,-4.9 78.52,-47.98 156.53,-70.93 234.88,-115.97 117.16,-67.35 321.8,-176.58 438.96,-243.93 230.47,-132.48 1124.36,-564.76 1289,-680.41 166.11,-116.69 117.16,-185.45 76.27,-385.17 -63.42,-309.77 -114.95,-574.49 -183.11,-880.3l-192.38 -883.92z"/>
     <path class="fil3" d="M10138.89 10619.9l922.83 987.28c112.86,123.19 220.49,213.34 321.14,347.63 -358.56,194.72 -1641.37,901.24 -1935.01,1030.41l-922.82 -987.29c-112.87,-123.18 -220.5,-213.33 -321.14,-347.63l1935 -1030.4zm-462.56 -1798.13l294.42 1483.72 -1435.96 768.39c-127.24,80.2 -366.45,203.69 -499.05,262.02 -27.59,-146.89 -242.35,-1357.82 -294.42,-1483.73 192.43,-84.64 1894.78,-985.98 1935.01,-1030.4zm660.64 1501.88l-234.34 -1211.41 912.7 960.67c163.01,169.75 165.9,432.74 215.87,661.21 34.15,156.11 143.4,595.35 128.56,693.11l-513.18 -547.21c-63,-66.17 -489.43,-510.49 -509.61,-556.37zm1091.61 -300.92c-37.49,-85.25 -1206.4,-1265.83 -1412.13,-1489.19 -247.13,-268.31 -296.12,-104.59 -547.59,20.74l-1530.38 814.59c-669.83,408.38 -638.96,-11.69 -335.27,1487.43 185.72,916.78 22.77,715.15 758.97,1453.97l850.31 907.06c190.45,192.75 210.48,204.03 552.47,-4.9 78.52,-47.98 156.53,-70.93 234.88,-115.97 117.16,-67.35 321.8,-176.58 438.96,-243.93 230.47,-132.48 1124.36,-564.76 1289,-680.41 166.11,-116.69 117.16,-185.45 76.27,-385.17 -63.42,-309.77 -114.95,-574.49 -183.11,-880.3l-192.38 -883.92z"/>
    </g>
    <g>
     <path class="fil2" d="M10579.02 4347.24c-88.08,-30.23 -1748.4,28.64 -2052.07,28.44 -364.78,-0.23 -277.64,146.78 -356,416.59l-438.73 1677.24c-153.93,769.26 -441.78,461.78 866.11,1254.88 799.82,485.02 541.14,468.1 1583.36,427.82l1243.25 -10.11c270.8,-9.32 292.68,-16.4 370.96,-409.44 17.96,-90.25 53.97,-163.15 73.98,-251.28 29.92,-131.79 88.37,-356.27 118.28,-488.06 58.87,-259.23 347.12,-1209.4 373.73,-1408.83 26.84,-201.22 -56.89,-211.85 -231.43,-317.2 -270.7,-163.39 -500.24,-304.99 -771.25,-462.21l-780.19 -457.84z"/>
     <path class="fil3" d="M10143.64 5700.14l1351.39 -9.02c167.07,0.55 306.31,-17.45 473.26,-0.39 -99.95,395.58 -450.28,1817.57 -554.41,2120.99l-1351.39 9.02c-167.07,-0.54 -306.31,17.46 -473.26,0.39l554.41 -2120.99zm-1635.4 -879.03l1290.28 789.48 -408.67 1576.51c-27.32,147.91 -98.72,407.47 -145.74,544.49 -126.68,-79.3 -1162.43,-742.4 -1290.29,-789.48 68.24,-198.85 559.8,-2061.31 554.42,-2121zm1551.91 532.58l-1049.37 -649.03 1324.96 -19.62c235.29,-4.74 430.58,171.42 632.41,289.59 137.91,80.73 534.85,298.21 596.66,375.4l-750.17 6.25c-91.36,1.45 -707.08,13.68 -754.49,-2.59zm518.87 -1006.45c-88.08,-30.23 -1748.4,28.64 -2052.07,28.44 -364.78,-0.23 -277.64,146.78 -356,416.59l-438.73 1677.24c-153.93,769.26 -441.78,461.78 866.11,1254.88 799.82,485.02 541.14,468.1 1583.36,427.82l1243.25 -10.11c270.8,-9.32 292.68,-16.4 370.96,-409.44 17.96,-90.25 53.97,-163.15 73.98,-251.28 29.92,-131.79 88.37,-356.27 118.28,-488.06 58.87,-259.23 347.12,-1209.4 373.73,-1408.83 26.84,-201.22 -56.89,-211.85 -231.43,-317.2 -270.7,-163.39 -500.24,-304.99 -771.25,-462.21l-780.19 -457.84z"/>
    </g>
   </g>
   <path class="fil0 str0" d="M5048.37 12504.1l7903.11 -7000"/>
   <path class="fil0 str1" d="M5048.37 12504.1l7903.11 -7000"/>
  </g>
 </g>
</svg>
