<?xml version="1.0" encoding="UTF-8"?>
<!DOCTYPE svg PUBLIC "-//W3C//DTD SVG 1.1//EN" "http://www.w3.org/Graphics/SVG/1.1/DTD/svg11.dtd">
<!-- Creator: CorelDRAW 2020 (64-Bit) -->
<svg xmlns="http://www.w3.org/2000/svg" xml:space="preserve" width="408.677mm" height="327.255mm" version="1.1" style="shape-rendering:geometricPrecision; text-rendering:geometricPrecision; image-rendering:optimizeQuality; fill-rule:evenodd; clip-rule:evenodd"
viewBox="0 0 40867.7 32725.5"
 xmlns:xlink="http://www.w3.org/1999/xlink"
 xmlns:xodm="http://www.corel.com/coreldraw/odm/2003">
 <defs>
  <style type="text/css">
   <![CDATA[
    .fil1 {fill:black}
    .fil2 {fill:black}
    .fil0 {fill:black;fill-rule:nonzero}
   ]]>
  </style>
 </defs>
 <g id="Capa_x0020_1">
  <metadata id="CorelCorpID_0Corel-Layer"/>
  <g id="_2378483773568">
   <g>
    <path class="fil0" d="M442.21 8856.97c0,-202.36 13.24,-389.59 35.94,-561.68 24.58,-172.1 60.51,-357.43 109.68,-556.01l1112.01 0 0 459.56c0,253.42 17.02,480.36 47.28,675.15 32.15,196.68 83.21,361.21 155.08,495.48 71.86,136.17 168.31,236.4 289.34,304.48 119.15,69.97 266.66,104.01 440.65,104.01 272.32,0 480.35,-75.64 625.97,-225.04 143.73,-149.41 215.6,-368.78 215.6,-656.24 0,-147.51 -9.46,-283.68 -30.26,-408.49 -20.81,-122.93 -54.85,-245.85 -105.91,-366.89 -49.17,-122.93 -117.25,-251.52 -202.35,-385.8 -85.11,-134.27 -192.9,-285.56 -327.18,-451.99l-1495.91 -1777.69c-264.76,-340.42 -470.9,-682.72 -614.63,-1028.8 -143.73,-344.19 -215.59,-712.97 -215.59,-1104.44 0,-313.94 49.17,-601.39 147.51,-864.27 96.45,-262.87 238.29,-487.92 423.62,-678.93 183.44,-191 412.28,-338.52 682.71,-442.53 272.33,-105.9 580.59,-158.86 922.89,-158.86 417.95,0 765.93,58.63 1043.93,177.77 279.89,117.25 503.05,272.33 669.47,465.23 164.53,192.9 281.79,406.6 351.76,644.89 68.08,238.29 102.12,478.46 102.12,718.64 0,202.36 -17.02,389.58 -47.28,561.68 -32.15,172.1 -68.08,361.21 -107.79,567.35l-1108.23 0 0 -448.21c0,-503.05 -71.86,-886.96 -215.59,-1155.5 -145.62,-266.66 -380.13,-400.93 -705.41,-400.93 -268.54,0 -470.9,73.76 -603.28,223.16 -132.38,151.29 -198.57,349.87 -198.57,601.39 0,134.27 9.45,253.42 30.26,361.21 20.8,105.91 49.17,206.14 88.88,295.03 37.82,90.77 85.1,179.66 139.95,264.76 56.73,85.1 119.14,172.1 189.11,264.76l1668.01 2017.88c302.59,395.25 535.2,773.49 697.85,1138.48 162.64,363.11 243.96,748.91 243.96,1155.51 0,334.73 -52.96,637.32 -158.86,907.76 -104.02,270.43 -255.31,499.27 -450.1,686.49 -196.68,189.12 -433.08,334.74 -709.19,434.97 -278,102.12 -590.04,153.18 -938.02,153.18 -427.4,0 -782.94,-56.73 -1066.62,-172.09 -281.78,-115.36 -506.83,-266.66 -675.14,-453.88 -168.32,-189.12 -285.57,-402.82 -353.65,-643 -69.98,-240.18 -104.02,-486.03 -104.02,-737.55z"/>
    <polygon id="1" class="fil0" points="6106.26,1311.2 7541.66,1311.2 7541.66,10774.61 6106.26,10774.61 "/>
    <path id="2" class="fil0" d="M9158.61 1311.2l1163.07 0 2293.99 6333.53 32.15 0c-9.46,-147.51 -24.59,-312.05 -43.5,-493.6 -18.91,-181.55 -35.93,-387.69 -49.17,-618.41 -15.13,-230.72 -28.37,-491.7 -39.72,-782.94 -11.34,-293.14 -17.02,-620.31 -17.02,-987.19l0 -3451.39 1286 0 0 9463.41 -1174.42 0 -2282.64 -6167.1 -45.39 0c11.35,166.42 26.48,346.08 45.39,540.87 18.91,192.9 35.93,421.73 49.17,684.61 15.13,260.98 28.37,567.35 39.72,917.21 11.34,347.98 17.02,762.14 17.02,1242.5l0 2781.91 -1274.65 0 0 -9463.41z"/>
    <polygon id="3" class="fil1" points="-0.32,11806.16 14593.83,11806.16 14593.83,12321.94 -0.32,12321.94 "/>
    <path class="fil0" d="M1818.83 13749.27l1302.04 0 1379.6 7463.27 -1143.95 0 -205.82 -1337.84 -1363.19 0 -196.87 1337.84 -1148.43 0 1376.62 -7463.27zm1200.62 5273.81l-523.5 -3718.21 -49.22 0 -527.97 3718.21 1100.69 0z"/>
    <polygon id="1" class="fil0" points="4754.03,20614.46 6965.86,14641.17 5086.62,14641.17 5086.62,13749.27 8236.59,13749.27 8236.59,14347.35 6021.77,20320.65 8105.34,20320.65 8105.34,21212.54 4754.03,21212.54 "/>
    <path id="2" class="fil0" d="M8974.86 13749.27l1140.97 0 0 5470.68c0,232.67 11.93,426.56 34.3,581.67 23.86,153.62 61.15,277.41 111.86,368.39 50.71,92.47 116.33,158.09 196.87,196.87 80.54,38.78 174.5,59.66 286.36,59.66 110.37,0 207.31,-20.88 290.84,-59.66 82.03,-38.78 150.63,-104.4 204.33,-196.87 53.69,-90.98 95.45,-214.77 122.3,-368.39 28.33,-155.11 41.76,-349 41.76,-581.67l0 -5470.68 1127.54 0 0 5169.4c0,363.92 -29.83,675.64 -88,935.15 -58.16,259.51 -134.23,475.78 -231.17,650.28 -95.46,175.99 -205.82,313.2 -329.61,416.11 -123.8,101.42 -252.06,178.98 -384.8,232.67 -132.74,55.19 -263.99,89.49 -395.24,102.91 -131.25,14.92 -250.56,22.37 -357.95,22.37 -108.87,0 -226.7,-7.45 -356.46,-22.37 -129.75,-13.42 -259.51,-47.72 -390.76,-102.91 -131.25,-53.69 -258.02,-131.25 -380.32,-232.67 -122.3,-102.91 -231.18,-240.12 -328.12,-416.11 -95.46,-174.5 -173.01,-390.77 -229.69,-648.79 -56.67,-258.02 -85.01,-569.74 -85.01,-936.64l0 -5169.4z"/>
    <path id="3" class="fil0" d="M15389.63 21278.16c-116.34,0 -243.11,-8.94 -378.83,-28.33 -134.23,-19.39 -269.96,-59.66 -405.68,-120.81 -135.72,-61.15 -265.48,-147.66 -389.27,-259.52 -123.79,-111.86 -232.67,-259.51 -326.63,-442.96 -95.45,-183.45 -171.52,-410.15 -228.19,-680.11 -56.68,-269.95 -85.02,-590.61 -85.02,-963.48l0 -2642.87c0,-375.84 29.83,-698 88,-963.48 58.17,-266.97 134.23,-490.69 231.18,-674.14 95.45,-181.96 207.31,-326.63 332.59,-434.01 125.28,-107.39 253.55,-189.42 387.78,-247.59 134.23,-56.67 268.46,-93.96 399.71,-110.36 132.74,-17.9 256.53,-26.85 369.88,-26.85 296.8,0 545.88,41.76 744.24,125.28 199.86,82.03 360.94,195.38 481.74,340.06 120.81,144.67 205.83,313.2 258.03,505.6 50.71,190.91 76.06,395.24 76.06,611.5 0,159.59 -7.46,307.24 -23.86,442.96 -16.41,135.73 -40.27,284.87 -73.08,447.44l-917.25 0 0 -380.32c0,-410.15 -44.75,-717.39 -135.72,-921.72 -89.49,-202.84 -222.23,-305.75 -396.73,-305.75 -105.9,0 -196.88,20.88 -275.92,61.15 -79.05,41.76 -143.18,110.36 -196.88,207.31 -52.2,98.44 -92.47,226.7 -119.31,387.78 -28.34,159.59 -41.76,359.44 -41.76,598.07l0 3407.99c0,232.67 10.44,426.56 32.81,581.67 22.37,153.62 58.17,277.41 107.38,371.37 49.22,92.47 113.36,159.59 193.89,198.37 80.54,40.27 177.49,59.66 290.84,59.66 73.08,0 143.18,-16.41 208.8,-50.71 67.12,-32.82 126.78,-86.51 177.49,-156.61 50.71,-71.59 92.47,-162.57 122.3,-271.44 31.32,-108.88 46.23,-238.64 46.23,-386.29l0 -730.82 1035.08 0 0 690.55c0,601.06 -135.73,1042.53 -410.16,1328.89 -274.42,284.87 -666.68,429.54 -1179.74,432.52z"/>
    <path id="4" class="fil0" d="M18693.21 13749.27l1302.04 0 1379.6 7463.27 -1143.95 0 -205.82 -1337.84 -1363.19 0 -196.87 1337.84 -1148.43 0 1376.62 -7463.27zm1200.62 5273.81l-523.5 -3718.21 -49.22 0 -527.97 3718.21 1100.69 0z"/>
    <path id="5" class="fil0" d="M22096.72 13749.27l1227.48 0c140.19,0 293.81,5.97 460.86,17.9 167.04,11.93 335.58,40.27 502.62,85.01 167.04,44.75 329.61,113.36 484.72,202.84 156.61,90.98 293.82,214.77 416.12,371.38 120.81,158.09 217.75,354.96 289.34,592.11 73.09,237.14 110.37,524.99 110.37,863.55l0 187.93c0,568.24 -82.03,1030.59 -246.09,1387.05 -162.57,356.46 -402.69,614.49 -720.37,771.09l1197.64 2984.41 -1197.64 0 -991.82 -2792.01 -423.58 0 0 2792.01 -1109.65 0 0 -7463.27zm1279.68 3853.94c198.36,0 365.41,-22.38 502.62,-65.63 137.21,-43.25 247.58,-116.33 332.6,-220.73 83.52,-102.91 144.67,-240.13 183.44,-410.16 37.29,-170.02 56.68,-381.81 56.68,-632.37l0 -589.13c0,-192.4 -17.9,-357.95 -52.2,-498.15 -35.8,-140.2 -93.96,-255.04 -177.48,-344.53 -83.53,-90.97 -192.4,-158.09 -329.62,-201.34 -137.21,-44.75 -308.73,-65.63 -516.04,-65.63l-170.03 0 0 3027.67 170.03 0z"/>
    <path class="fil0" d="M2055.32 23901.39l1525.71 0 1616.58 8745.29 -1340.45 0 -241.18 -1567.65 -1597.36 0 -230.69 1567.65 -1345.7 0 1613.09 -8745.29zm1406.87 6179.73l-613.43 -4356.92 -57.68 0 -618.67 4356.92 1289.78 0z"/>
    <path id="1" class="fil0" d="M7810.36 32728.82c-103.11,0 -221.95,-10.49 -360.02,-33.21 -136.31,-22.72 -276.13,-69.9 -421.18,-141.56 -145.06,-71.65 -288.37,-173.01 -428.18,-304.09 -139.81,-131.07 -265.64,-305.84 -375.74,-522.55 -111.86,-216.71 -200.99,-482.35 -269.14,-798.68 -68.16,-316.33 -103.12,-692.07 -103.12,-1128.99l0 -3096.85c0,-440.41 36.7,-817.91 108.36,-1128.99 71.65,-312.83 167.77,-574.98 286.61,-789.94 118.85,-213.22 256.91,-382.74 412.45,-508.57 155.54,-125.83 316.33,-221.95 484.1,-290.11 166.03,-66.41 332.06,-110.11 496.34,-129.33 164.28,-20.97 316.33,-31.46 456.14,-31.46 354.77,0 653.62,48.94 898.3,146.81 242.92,96.12 442.15,228.94 594.2,398.46 150.3,169.53 260.4,367.01 326.81,592.46 66.41,223.7 99.62,463.13 99.62,716.54 0,187 -10.49,360.02 -33.21,519.05 -22.72,159.04 -52.43,333.81 -89.13,524.3l-1060.83 0 0 -414.19c0,-959.47 -256.9,-1438.33 -772.46,-1438.33 -139.81,0 -260.4,22.72 -363.52,71.66 -103.11,47.18 -186.99,129.32 -255.15,242.92 -68.16,113.6 -118.84,265.65 -152.05,452.65 -31.46,188.74 -48.93,421.18 -48.93,702.56l0 3961.94c0,272.64 17.47,499.83 48.93,681.59 33.21,180.01 82.14,325.06 148.55,435.17 66.41,108.35 150.3,186.99 251.66,232.43 99.62,47.19 220.21,69.91 360.02,69.91 146.81,0 272.64,-38.45 379.24,-115.35 106.61,-76.89 192.25,-181.75 260.41,-314.57 68.15,-134.57 118.84,-290.12 152.04,-471.87 31.46,-180.01 48.94,-377.5 48.94,-588.96l0 -1141.23 -681.59 0 0 -870.33 1971.36 0 0 4428.57 -880.82 0 -143.31 -830.14c-167.77,325.07 -360.02,557.51 -576.73,699.07 -216.71,141.56 -473.61,213.21 -768.97,213.21z"/>
    <path id="2" class="fil0" d="M11403.55 23901.39l1438.32 0c164.28,0 344.29,6.99 540.03,20.97 195.74,13.98 393.22,47.19 588.96,99.62 195.74,52.43 386.23,132.82 567.99,237.68 183.5,106.61 344.29,251.66 487.6,435.17 141.56,185.25 255.16,415.94 339.04,693.82 85.64,277.88 129.33,615.17 129.33,1011.89l0 220.21c0,665.86 -96.12,1207.63 -288.36,1625.32 -190.5,417.69 -471.87,720.04 -844.12,903.54l1403.37 3497.07 -1403.37 0 -1162.2 -3271.62 -496.33 0 0 3271.62 -1300.26 0 0 -8745.29zm1499.49 4515.95c232.44,0 428.18,-26.21 588.96,-76.89 160.79,-50.69 290.11,-136.32 389.73,-258.66 97.87,-120.59 169.52,-281.37 214.96,-480.6 43.69,-199.24 66.41,-447.41 66.41,-741.01l0 -690.33c0,-225.45 -20.97,-419.44 -61.16,-583.72 -41.95,-164.28 -110.11,-298.85 -207.98,-403.71 -97.87,-106.6 -225.44,-185.25 -386.23,-235.93 -160.78,-52.43 -361.76,-76.9 -604.69,-76.9l-199.23 0 0 3547.75 199.23 0z"/>
    <polygon id="3" class="fil0" points="16768.87,23901.39 20009.03,23901.39 20009.03,24946.49 18095.34,24946.49 18095.34,27562.74 19573.86,27562.74 19573.86,28606.09 18095.34,28606.09 18095.34,31601.58 20061.46,31601.58 20061.46,32646.68 16768.87,32646.68 "/>
    <path id="4" class="fil0" d="M22786.06 32728.82c-103.11,0 -221.95,-10.49 -360.02,-33.21 -136.31,-22.72 -276.13,-69.9 -421.18,-141.56 -145.06,-71.65 -288.37,-173.01 -428.18,-304.09 -139.81,-131.07 -265.64,-305.84 -375.74,-522.55 -111.86,-216.71 -200.99,-482.35 -269.14,-798.68 -68.16,-316.33 -103.12,-692.07 -103.12,-1128.99l0 -3096.85c0,-440.41 36.7,-817.91 108.36,-1128.99 71.65,-312.83 167.77,-574.98 286.61,-789.94 118.85,-213.22 256.91,-382.74 412.45,-508.57 155.54,-125.83 316.33,-221.95 484.1,-290.11 166.03,-66.41 332.06,-110.11 496.34,-129.33 164.28,-20.97 316.33,-31.46 456.14,-31.46 354.77,0 653.62,48.94 898.3,146.81 242.92,96.12 442.15,228.94 594.2,398.46 150.3,169.53 260.4,367.01 326.81,592.46 66.41,223.7 99.62,463.13 99.62,716.54 0,187 -10.49,360.02 -33.21,519.05 -22.72,159.04 -52.43,333.81 -89.13,524.3l-1060.83 0 0 -414.19c0,-959.47 -256.9,-1438.33 -772.46,-1438.33 -139.81,0 -260.4,22.72 -363.52,71.66 -103.11,47.18 -186.99,129.32 -255.15,242.92 -68.16,113.6 -118.84,265.65 -152.05,452.65 -31.46,188.74 -48.93,421.18 -48.93,702.56l0 3961.94c0,272.64 17.47,499.83 48.93,681.59 33.21,180.01 82.14,325.06 148.55,435.17 66.41,108.35 150.3,186.99 251.66,232.43 99.62,47.19 220.21,69.91 360.02,69.91 146.81,0 272.64,-38.45 379.24,-115.35 106.61,-76.89 192.25,-181.75 260.41,-314.57 68.15,-134.57 118.84,-290.12 152.04,-471.87 31.46,-180.01 48.94,-377.5 48.94,-588.96l0 -1141.23 -681.59 0 0 -870.33 1971.36 0 0 4428.57 -880.82 0 -143.31 -830.14c-167.77,325.07 -360.02,557.51 -576.73,699.07 -216.71,141.56 -473.61,213.21 -768.97,213.21z"/>
    <path id="5" class="fil0" d="M27342.21 23901.39l1525.71 0 1616.58 8745.29 -1340.45 0 -241.18 -1567.65 -1597.36 0 -230.69 1567.65 -1345.7 0 1613.09 -8745.29zm1406.87 6179.73l-613.43 -4356.92 -57.68 0 -618.67 4356.92 1289.78 0z"/>
    <path id="6" class="fil0" d="M31330.37 23901.39l1377.15 0c207.98,0 424.69,6.99 646.64,17.48 223.7,12.23 442.16,48.93 655.37,110.1 214.96,62.91 415.94,157.29 604.69,284.87 190.5,127.58 356.52,307.59 499.83,538.28 143.31,228.94 256.91,519.05 340.8,870.33 82.14,349.53 124.08,775.96 124.08,1281.04l0 2541.09c0,505.08 -41.94,933.25 -124.08,1284.53 -83.89,351.28 -197.49,641.39 -340.8,870.34 -143.31,228.94 -309.33,407.2 -499.83,534.78 -188.75,127.58 -389.73,223.7 -604.69,284.87 -213.21,61.17 -431.67,97.87 -655.37,110.1 -221.95,12.24 -438.66,17.48 -646.64,17.48l-1377.15 0 0 -8745.29zm1663.77 7819.03c239.43,0 435.17,-31.46 590.71,-92.63 155.54,-61.16 277.88,-169.52 368.76,-325.06 90.87,-155.54 153.79,-367.01 187,-634.4 34.95,-269.14 50.68,-606.44 50.68,-1017.14l0 -2714.12c0,-408.95 -15.73,-747.99 -50.68,-1015.39 -33.21,-267.39 -96.13,-480.6 -187,-634.4 -90.88,-155.54 -213.22,-263.89 -368.76,-325.06 -155.54,-62.92 -351.28,-92.63 -590.71,-92.63l-337.3 0 0 6850.83 337.3 0z"/>
    <path id="7" class="fil0" d="M37725.06 23901.39l1525.71 0 1616.58 8745.29 -1340.45 0 -241.18 -1567.65 -1597.36 0 -230.69 1567.65 -1345.7 0 1613.09 -8745.29zm1406.87 6179.73l-613.43 -4356.92 -57.68 0 -618.67 4356.92 1289.78 0z"/>
   </g>
   <g>
    <path class="fil2" d="M25449.55 12262.97c-349.68,-320.72 -2200.69,-2627.17 -2572.57,-2953.31l4021.79 -2119.8 1905.22 2179.41c177.25,201.85 431.4,535.78 627.92,739.32 -241.15,232.77 -3710.29,1891.74 -3982.36,2154.38zm-2798.99 -3570.18c-112.23,-167.59 -284.09,-1376.56 -308.87,-1577.51 -25.35,-205.73 -294.16,-1553.27 -236.17,-1619.38l3947.79 -2114.98c108,161.27 58.85,182.65 88.47,365.78 23.81,147.17 38.96,263.08 63.33,404.57 48.42,281.16 79.8,531.46 127.62,809.08l265.63 1617.47c-165.31,118.46 -281.06,165.42 -466,258.42l-3481.8 1856.55zm6747.66 340.52l0 0zm0 0c-242.82,-212.95 -2021.87,-2254.7 -2103.76,-2426.53 -72.4,-151.93 -48.61,-144.73 -64.86,-293.02 -16.5,-150.45 -35.94,-186.8 -55.34,-330.77 -32.57,-241.68 -71.83,-424.79 -111.9,-661.49 -35.84,-211.7 -57.6,-405.64 -90.76,-625.7 -30.62,-203.2 -117.92,-487 -95.03,-662.59 180.28,158.1 2009.6,2163.91 2090.58,2427.39l431.07 2572.71zm-7913.91 -3942.79c-169.49,193.26 -79.08,445.87 -10.78,818.11l539.86 3308.68c57.99,160.85 499.11,646.78 650.93,812.13 470.93,512.87 894.86,1041.6 1361.82,1583.19 250.15,290.13 436.86,496.06 675.57,773.38 208.97,242.76 429.11,645.35 755.34,555.96l4847.72 -2555.87c1.45,-355.14 -588.97,-3348.06 -689.1,-4004.9 -69.03,-452.71 -205.71,-517.4 -610.55,-963.38l-1673.02 -1897.3c-264.13,-290.52 -584.98,-716.27 -888.44,-982.41 -354.14,94.36 -173.6,-4.04 -616.04,236.97 -602.26,328.06 -4189.2,2139.71 -4343.31,2315.44z"/>
    <path class="fil2" d="M34899.99 13021.82l2404.6 967.97c296.06,122.62 556.26,192.08 840.09,343.91 -465.4,629.18 -2122.45,2897.4 -2528.16,3360l-2404.59 -967.98c-296.07,-122.61 -556.25,-192.05 -840.09,-343.9l2528.15 -3360zm-2261.96 -2750.62l1714.76 2340.43 -1873.09 2499.93c-156.17,242.57 -471.86,651.17 -655.07,860.08 -167.05,-232.96 -1522.16,-2163.79 -1714.76,-2340.43 265.88,-303.16 2494.25,-3250.17 2528.16,-3360.01zm2366.08 2075.07l-1389.54 -1915.78 2365.43 929.92c420.98,162.9 639.24,617.71 911.34,974.34 185.93,243.68 731.97,918.62 785.43,1100.59l-1335.71 -535.13c-163.18,-63.93 -1264.68,-490.56 -1336.95,-553.94zm1653.55 -1408.16c-134.3,-117.77 -3123.38,-1222.22 -3662.1,-1443.7 -647.12,-266.01 -599.54,58.3 -935.05,480.04l-1999.76 2656.79c-833.26,1252.97 -1120.17,497.75 623.18,2857.42 1066.13,1443.03 619.42,1224.66 2498.16,1912.04l2213.51 887.3c487.32,180.65 531.3,184.02 956.37,-456.44 97.6,-147.07 214.58,-250.21 314.25,-392.03 149.06,-212.07 416.22,-567.85 565.27,-779.93 293.21,-417.14 1496.55,-1893.33 1688.97,-2227.84 194.15,-337.52 53.31,-417.35 -179.7,-731.37 -361.39,-487.04 -665.6,-905.43 -1032.03,-1381.75l-1051.07 -1380.53z"/>
    <path class="fil2" d="M32148.35 5658.84c-152.9,-213.22 -404.54,-833.62 -546.14,-1116.19l-532.36 -1154.24c446.19,-319.73 945.56,-841.1 1404.66,-1238.27 251.85,-217.89 486.06,-428.79 702.14,-621.71 231.57,-206.73 549.92,-453.38 736.39,-666.01l1078.5 2270.44 -1403.36 1257.75c-423.6,369.73 -991.6,947.03 -1439.83,1268.23zm3041.77 2179.66c-254.85,-223.51 -2244.98,-1462.26 -2598.25,-1651.25l2595.64 -2335.95c228.36,-215.47 101.01,-285.74 673.65,73.79l2172.16 1387.41 -2843.2 2526zm-364.76 -6663.99c375.46,329.28 1755.54,1051.63 2016.46,1280.46 217.44,190.69 666.78,1421.53 935.82,1796.72l-69.12 78.81c-361.98,-317.47 -1849.42,-1133.75 -2016.82,-1283.84 -129.09,-115.72 -367.38,-735.42 -464.28,-932.33 -88.67,-180.18 -376.05,-749.21 -402.06,-939.82zm2352.31 738.41l-2751.92 -1727.82c-572.9,-363.12 -527.51,-170.23 -1269.37,471.6 -448.23,387.77 -813.97,733.61 -1263.65,1122.66 -434.35,375.78 -797.39,726.5 -1228.96,1101.55 -262.55,228.14 -407.05,303.47 -258.28,625.11l1212.43 2596.12c152.67,332.84 115.15,329.98 483.57,552.69l2752.64 1723.56c524.6,355.32 517.94,194.99 1269.12,-475.65l2493.67 -2219.54c496.85,-446.02 355.61,-360.52 -59.45,-1259.4 -80.88,-175.16 -1053.3,-2283.4 -1194.57,-2414.27 -182.89,-169.46 -176.74,-92.15 -185.23,-96.61z"/>
   </g>
  </g>
 </g>
</svg>
