<?xml version="1.0" encoding="UTF-8"?>
<!DOCTYPE svg PUBLIC "-//W3C//DTD SVG 1.1//EN" "http://www.w3.org/Graphics/SVG/1.1/DTD/svg11.dtd">
<!-- Creator: CorelDRAW 2020 (64-Bit) -->
<svg xmlns="http://www.w3.org/2000/svg" xml:space="preserve" width="226.705mm" height="106.354mm" version="1.1" style="shape-rendering:geometricPrecision; text-rendering:geometricPrecision; image-rendering:optimizeQuality; fill-rule:evenodd; clip-rule:evenodd"
viewBox="0 0 22670.5 10635.4"
 xmlns:xlink="http://www.w3.org/1999/xlink"
 xmlns:xodm="http://www.corel.com/coreldraw/odm/2003">
 <defs>
  <style type="text/css">
   <![CDATA[
    .fil0 {fill:black;fill-rule:nonzero}
   ]]>
  </style>
 </defs>
 <g id="Capa_x0020_1">
  <metadata id="CorelCorpID_0Corel-Layer"/>
  <path class="fil0" d="M538.3 1331.08l967.49 0c143.74,0 291.42,5.01 443.99,15.14 152.69,10.01 301.56,30.27 446.62,63.05 146.24,31.59 283.79,79.5 414.9,141.25 130.04,63.05 243.51,147.68 341.85,253.64 97.14,105.96 174.14,237.07 232.19,393.45 58.04,156.5 87.01,344.47 87.01,563.9l0 306.57c0,167.7 -23.96,321.7 -71.88,461.63 -47.91,141.36 -112.28,264.96 -190.47,372.12 -79.5,107.27 -169.01,195.59 -269.97,266.15 -100.95,69.37 -204.41,117.41 -310.37,141.37l0 30.27c312.88,56.74 548.76,204.3 707.76,445.31 158.88,239.57 238.39,547.45 238.39,922.07l0 321.7c0,228.25 -25.27,427.54 -75.69,596.56 -50.42,169.13 -121.1,312.88 -213.24,432.67 -90.82,118.59 -199.29,217.05 -324.2,293.93 -126.11,75.68 -263.54,135.04 -414.91,179.14 -150.18,42.91 -310.38,71.88 -479.39,88.32 -170.33,16.45 -345.66,23.96 -524.81,23.96l-1005.27 0 0 -6312.2zm1122.68 2701.98c128.61,0 245.89,-16.45 351.85,-46.72 105.97,-30.28 195.6,-78.2 271.29,-143.75 75.68,-65.56 132.42,-150.06 174.02,-254.83 40.4,-104.66 60.55,-230.88 60.55,-379.63l0 -258.65c0,-147.56 -15.14,-277.48 -44.1,-391.07 -29.09,-113.47 -78.19,-209.42 -146.37,-288.81 -68.06,-78.19 -156.38,-138.74 -266.16,-179.14 -109.78,-40.41 -243.39,-60.55 -401.08,-60.55l-184.27 0 0 2003.15 184.27 0zm89.51 2945.49c127.42,0 244.7,-17.65 349.47,-50.54 104.65,-32.78 194.17,-84.51 268.66,-155.07 75.69,-70.68 133.74,-159 174.02,-267.47 40.41,-108.47 60.55,-237.19 60.55,-384.75l0 -491.91c0,-147.68 -13.82,-278.79 -44.1,-393.58 -29.08,-114.78 -78.19,-210.73 -145.05,-287.61 -68.18,-78.19 -156.5,-137.54 -264.97,-177.83 -108.46,-40.41 -240.89,-60.55 -398.58,-60.55l-273.78 0 0 2269.31 273.78 0zm2656.68 -5647.47l2338.68 0 0 754.37 -1381.32 0 0 1888.37 1067.25 0 0 753.06 -1067.25 0 0 2162.03 1419.11 0 0 754.37 -2376.47 0 0 -6312.2zm842.58 -524.8l1185.72 -798.47 476.89 616.82 -1274.05 614.32 -388.56 -432.67zm2225.2 524.8l957.36 0 0 5557.83 1304.32 0 0 754.37 -2261.68 0 0 -6312.2zm4142.54 6371.44c-74.38,0 -160.2,-7.51 -259.84,-23.96 -98.33,-16.33 -199.29,-50.42 -303.94,-102.14 -104.77,-51.73 -208.23,-124.92 -309.07,-219.44 -100.95,-94.64 -191.78,-220.74 -271.28,-377.24 -80.69,-156.38 -145.06,-348.16 -194.28,-576.42 -49.11,-228.37 -74.38,-499.53 -74.38,-814.92l0 -2235.22c0,-317.88 26.46,-590.36 78.19,-814.92 51.73,-225.75 121.1,-415.02 206.92,-570.21 85.7,-153.88 185.46,-276.17 297.62,-367 112.28,-90.82 228.38,-160.19 349.48,-209.42 119.78,-47.91 239.69,-79.5 358.29,-93.33 118.48,-15.13 228.25,-22.76 329.21,-22.76 256.02,0 471.76,35.4 648.41,105.96 175.33,69.37 319.07,165.32 428.85,287.61 108.47,122.41 187.97,264.97 235.88,427.67 47.92,161.38 71.88,334.21 71.88,517.17 0,134.93 -7.51,259.84 -23.96,374.62 -16.45,114.79 -37.79,241.01 -64.37,378.44l-765.69 0 0 -298.93c0,-692.51 -185.34,-1038.17 -557.46,-1038.17 -100.96,0 -187.97,16.33 -262.46,51.73 -74.38,34.09 -134.93,93.33 -184.16,175.33 -49.22,82 -85.82,191.78 -109.77,326.71 -22.65,136.23 -35.28,303.94 -35.28,507.04l0 2859.67c0,196.79 12.63,360.8 35.28,492.03 23.95,129.92 59.35,234.57 107.27,314.07 47.92,78.19 108.46,134.93 181.65,167.82 71.87,33.97 158.88,50.42 259.84,50.42 105.96,0 196.79,-27.77 273.78,-83.31 76.88,-55.43 138.74,-131.12 187.97,-227.07 49.11,-97.02 85.7,-209.3 109.66,-340.53 22.76,-129.92 35.4,-272.47 35.4,-425.16l0 -823.62 -492.03 0 0 -628.26 1422.92 0 0 3196.5 -635.77 0 -103.46 -599.18c-121.1,234.57 -259.84,402.4 -416.22,504.54 -156.5,102.15 -341.84,153.88 -555.08,153.88zm2593.63 -6371.44l957.35 0 0 6312.2 -957.35 0 0 -6312.2zm3395.68 6367.75c-98.34,0 -205.61,-7.63 -320.39,-23.96 -113.47,-16.45 -228.26,-50.54 -343.04,-102.27 -114.9,-51.73 -224.56,-124.79 -329.33,-219.43 -104.65,-94.64 -196.78,-219.56 -276.17,-374.62 -80.81,-155.19 -145.05,-346.97 -193.09,-575.23 -47.91,-228.37 -71.87,-499.53 -71.87,-814.92l0 -2235.22c0,-317.88 25.27,-590.36 74.49,-814.92 49.11,-225.75 113.47,-415.02 195.48,-570.21 80.69,-153.88 175.33,-276.17 281.29,-367 105.97,-90.82 214.43,-160.19 328.02,-209.42 113.47,-47.91 227.06,-79.5 338.03,-93.33 112.28,-15.13 216.93,-22.76 312.76,-22.76 251.14,0 461.75,35.4 629.46,105.96 169.13,69.37 305.37,165.32 407.52,287.61 102.15,122.41 174.02,264.97 218.24,427.67 42.91,161.38 64.24,334.21 64.24,517.17 0,134.93 -6.19,259.84 -20.14,374.62 -13.83,114.79 -34.09,241.01 -61.74,378.44l-775.83 0 0 -321.7c0,-346.85 -37.9,-606.69 -114.78,-779.52 -75.68,-171.52 -187.96,-258.65 -335.52,-258.65 -89.64,0 -166.52,17.76 -233.38,51.73 -66.87,35.4 -121.1,93.33 -166.52,175.33 -44.22,83.32 -78.19,191.79 -100.95,328.02 -23.96,134.93 -35.28,304.06 -35.28,505.86l0 2882.31c0,196.79 8.82,360.8 27.77,492.03 18.83,129.92 49.11,234.57 90.82,314.07 41.6,78.19 95.83,134.93 164.01,167.82 68.06,33.97 150.07,50.42 245.9,50.42 61.86,0 121.1,-13.83 176.64,-42.91 56.74,-27.77 107.15,-73.18 150.06,-132.42 42.91,-60.55 78.19,-137.55 103.46,-229.57 26.46,-92.13 39.1,-201.91 39.1,-326.7l0 -618.14 875.47 0 0 584.05c0,508.35 -114.79,881.78 -346.85,1123.98 -232.19,240.89 -563.9,363.18 -997.88,365.81zm2794.11 -6367.75l1101.22 0 1166.78 6312.2 -967.49 0 -174.02 -1131.49 -1152.95 0 -166.51 1131.49 -971.3 0 1164.27 -6312.2zm1015.4 4460.43l-442.68 -3144.78 -41.72 0 -446.49 3144.78 930.89 0zm-21417.95 2539.87l6936.65 0 0 343.99 -6936.65 0 0 -343.99z"/>
  <path class="fil0" d="M450.14 10360.75c0,-28.6 1.79,-54.94 5.01,-79.14 3.46,-24.2 8.58,-50.3 15.49,-78.31l156.62 0 0 64.72c0,35.64 2.39,67.7 6.56,95.12 4.53,27.65 11.8,50.77 21.93,69.73 10.01,19.19 23.6,33.25 40.65,42.9 16.8,9.78 37.54,14.67 62.09,14.67 38.38,0 67.59,-10.73 88.09,-31.71 20.26,-21.1 30.39,-51.97 30.39,-92.49 0,-20.74 -1.31,-39.93 -4.29,-57.45 -2.86,-17.29 -7.63,-34.69 -14.9,-51.73 -6.91,-17.29 -16.45,-35.4 -28.49,-54.24 -11.91,-18.95 -27.17,-40.28 -46,-63.65l-210.62 -250.3c-37.3,-48.03 -66.39,-96.19 -86.65,-144.94 -20.14,-48.39 -30.27,-100.36 -30.27,-155.54 0,-44.11 6.91,-84.63 20.73,-121.7 13.59,-36.95 33.5,-68.65 59.6,-95.59 25.87,-26.82 58.05,-47.68 96.19,-62.22 38.38,-15.02 81.77,-22.41 129.92,-22.41 58.88,0 107.87,8.23 146.96,25.03 39.46,16.45 70.92,38.38 94.29,65.56 23.24,27.05 39.69,57.21 49.58,90.7 9.53,33.62 14.42,67.47 14.42,101.2 0,28.48 -2.5,54.95 -6.67,79.14 -4.53,24.2 -9.66,50.9 -15.26,79.86l-156.02 0 0 -63.05c0,-70.92 -10.13,-124.92 -30.4,-162.7 -20.5,-37.55 -53.51,-56.5 -99.28,-56.5 -37.79,0 -66.28,10.37 -84.99,31.47 -18.59,21.22 -27.89,49.23 -27.89,84.63 0,18.95 1.31,35.63 4.29,50.89 2.86,14.9 6.91,28.96 12.52,41.48 5.24,12.87 11.92,25.39 19.66,37.31 7.99,12.04 16.81,24.19 26.58,37.3l234.93 284.16c42.55,55.66 75.33,108.94 98.22,160.31 22.88,51.14 34.32,105.37 34.32,162.7 0,47.08 -7.39,89.75 -22.29,127.78 -14.66,38.14 -35.99,70.32 -63.41,96.66 -27.65,26.7 -61.02,47.2 -99.88,61.27 -39.09,14.42 -83.08,21.57 -132.06,21.57 -60.2,0 -110.26,-7.99 -150.19,-24.2 -39.69,-16.33 -71.39,-37.54 -95.11,-64 -23.6,-26.58 -40.17,-56.62 -49.71,-90.47 -9.89,-33.85 -14.66,-68.42 -14.66,-103.82zm944.25 -1062.6l232.54 0 246.25 1332.57 -204.17 0 -36.83 -238.86 -243.4 0 -35.16 238.86 -205.01 0 245.78 -1332.57zm214.42 941.62l-93.44 -663.9 -8.82 0 -94.28 663.9 196.54 0zm393.22 -941.62l202.15 0 0 1173.33 275.34 0 0 159.24 -477.49 0 0 -1332.57zm600.49 0l203.7 0 0 976.78c0,41.6 2.15,76.17 6.2,103.82 4.17,27.54 10.85,49.59 19.91,65.8 9.05,16.56 20.74,28.24 35.16,35.16 14.42,6.91 31.11,10.73 51.13,10.73 19.67,0 37.07,-3.82 51.97,-10.73 14.66,-6.92 26.82,-18.6 36.47,-35.16 9.54,-16.21 17.05,-38.26 21.81,-65.8 5.01,-27.65 7.39,-62.22 7.39,-103.82l0 -976.78 201.32 0 0 923.03c0,64.96 -5.24,120.62 -15.61,166.99 -10.37,46.24 -23.96,84.86 -41.36,116.09 -17.05,31.35 -36.71,55.9 -58.77,74.26 -22.17,18.12 -45.05,31.94 -68.77,41.6 -23.72,9.77 -47.08,15.97 -70.56,18.35 -23.36,2.62 -44.7,3.94 -63.89,3.94 -19.43,0 -40.52,-1.32 -63.65,-3.94 -23.12,-2.38 -46.36,-8.58 -69.73,-18.35 -23.48,-9.66 -46.12,-23.48 -67.93,-41.6 -21.82,-18.36 -41.25,-42.91 -58.65,-74.26 -17.04,-31.23 -30.87,-69.85 -41,-115.85 -10.13,-46.13 -15.14,-101.79 -15.14,-167.23l0 -923.03zm858.31 0l209.9 0c31.7,0 64.72,1.07 98.45,2.74 34.09,1.79 67.46,7.39 99.88,16.69 32.78,9.65 63.41,23.96 92.14,43.39 29.08,19.54 54.35,46.96 76.16,82.12 21.82,34.8 39.22,79.02 51.97,132.54 12.52,53.28 18.83,118.24 18.83,195.24l0 387.14c0,77 -6.31,142.19 -18.83,195.71 -12.75,53.64 -30.15,97.74 -51.97,132.66 -21.81,34.93 -47.08,62.1 -76.16,81.53 -28.73,19.43 -59.36,34.09 -92.14,43.39 -32.42,9.29 -65.79,14.9 -99.88,16.8 -33.73,1.79 -66.75,2.62 -98.45,2.62l-209.9 0 0 -1332.57zm253.52 1191.45c36.47,0 66.27,-4.77 89.99,-14.18 23.72,-9.3 42.43,-25.75 56.26,-49.47 13.83,-23.72 23.36,-55.9 28.49,-96.66 5.24,-41.01 7.74,-92.38 7.74,-154.95l0 -413.6c0,-62.34 -2.5,-113.95 -7.74,-154.71 -5.13,-40.77 -14.66,-73.19 -28.49,-96.67 -13.83,-23.72 -32.54,-40.17 -56.26,-49.58 -23.72,-9.54 -53.52,-14.07 -89.99,-14.07l-51.37 0 0 1043.89 51.37 0zm720.88 -1191.45l232.54 0 246.25 1332.57 -204.17 0 -36.83 -238.86 -243.39 0 -35.17 238.86 -205.01 0 245.78 -1332.57zm214.43 941.62l-93.45 -663.9 -8.82 0 -94.28 663.9 196.55 0zm393.21 -941.62l204.3 0c30.39,0 61.5,1.07 93.68,3.22 32.3,2.15 63.65,6.44 94.28,13.35 30.87,6.67 59.96,16.81 87.61,29.8 27.41,13.35 51.37,31.11 72.23,53.52 20.5,22.4 36.71,50.06 48.99,83.07 12.28,33.02 18.36,72.71 18.36,119.08l0 64.72c0,35.4 -5.13,67.82 -15.14,97.38 -10.13,29.92 -23.72,56.02 -40.29,78.55 -16.81,22.64 -35.64,41.36 -56.97,56.25 -21.34,14.67 -43.15,24.8 -65.56,29.8l0 6.44c66.15,11.92 115.86,43.15 149.47,93.92 33.49,50.66 50.3,115.62 50.3,194.76l0 67.82c0,48.28 -5.37,90.35 -15.97,125.99 -10.61,35.64 -25.51,66.03 -45.06,91.3 -19.07,25.03 -42.07,45.89 -68.42,62.1 -26.58,15.97 -55.66,28.49 -87.6,37.79 -31.71,9.05 -65.44,15.25 -101.2,18.71 -35.87,3.46 -72.94,5 -110.73,5l-212.28 0 0 -1332.57zm237.08 570.46c27.17,0 51.84,-3.46 74.25,-9.9 22.41,-6.31 41.24,-16.44 57.21,-30.39 15.98,-13.83 28.01,-31.59 36.84,-53.76 8.46,-22.05 12.75,-48.75 12.75,-80.09l0 -54.59c0,-31.23 -3.22,-58.65 -9.3,-82.6 -6.2,-23.96 -16.57,-44.22 -30.87,-61.03 -14.42,-16.45 -33.13,-29.2 -56.26,-37.78 -23.12,-8.47 -51.37,-12.76 -84.62,-12.76l-38.98 0 0 422.9 38.98 0zm18.83 621.83c26.94,0 51.73,-3.82 73.78,-10.73 22.17,-6.92 41,-17.76 56.73,-32.78 15.98,-14.9 28.25,-33.49 36.71,-56.38 8.59,-22.88 12.88,-50.06 12.88,-81.29l0 -103.81c0,-31.11 -2.98,-58.89 -9.42,-83.08 -6.08,-24.2 -16.45,-44.46 -30.63,-60.67 -14.3,-16.57 -33.02,-29.08 -55.9,-37.55 -22.89,-8.58 -50.78,-12.87 -84.15,-12.87l-57.81 0 0 479.16 57.81 0zm560.8 -1192.29l202.15 0 0 1173.33 275.33 0 0 159.24 -477.48 0 0 -1332.57zm605.26 0l493.69 0 0 159.24 -291.54 0 0 398.7 225.27 0 0 159.01 -225.27 0 0 456.38 299.53 0 0 159.24 -501.68 0 0 -1332.57z"/>
 </g>
</svg>
