<?xml version="1.0" encoding="UTF-8"?>
<!DOCTYPE svg PUBLIC "-//W3C//DTD SVG 1.1//EN" "http://www.w3.org/Graphics/SVG/1.1/DTD/svg11.dtd">
<!-- Creator: CorelDRAW 2020 (64-Bit) -->
<svg xmlns="http://www.w3.org/2000/svg" xml:space="preserve" width="226.705mm" height="86.676mm" version="1.1" style="shape-rendering:geometricPrecision; text-rendering:geometricPrecision; image-rendering:optimizeQuality; fill-rule:evenodd; clip-rule:evenodd"
viewBox="0 0 22670.5 8667.6"
 xmlns:xlink="http://www.w3.org/1999/xlink"
 xmlns:xodm="http://www.corel.com/coreldraw/odm/2003">
 <defs>
  <style type="text/css">
   <![CDATA[
    .fil0 {fill:black;fill-rule:nonzero}
   ]]>
  </style>
 </defs>
 <g id="Capa_x0020_1">
  <metadata id="CorelCorpID_0Corel-Layer"/>
  <path class="fil0" d="M538.3 347.18l967.49 0c143.74,0 291.42,5.01 443.99,15.14 152.69,10.01 301.56,30.27 446.62,63.05 146.24,31.59 283.79,79.5 414.9,141.25 130.04,63.05 243.51,147.68 341.85,253.64 97.14,105.96 174.14,237.07 232.19,393.45 58.04,156.5 87.01,344.47 87.01,563.9l0 306.57c0,167.7 -23.96,321.7 -71.88,461.63 -47.91,141.36 -112.28,264.96 -190.47,372.12 -79.5,107.27 -169.01,195.59 -269.97,266.15 -100.95,69.37 -204.41,117.41 -310.37,141.37l0 30.27c312.88,56.74 548.76,204.3 707.76,445.31 158.88,239.57 238.39,547.45 238.39,922.07l0 321.7c0,228.25 -25.27,427.54 -75.69,596.56 -50.42,169.13 -121.1,312.88 -213.24,432.67 -90.82,118.59 -199.29,217.05 -324.2,293.93 -126.11,75.68 -263.54,135.04 -414.91,179.14 -150.18,42.91 -310.38,71.88 -479.39,88.32 -170.33,16.45 -345.66,23.96 -524.81,23.96l-1005.27 0 0 -6312.2zm1122.68 2701.98c128.61,0 245.89,-16.45 351.85,-46.72 105.97,-30.28 195.6,-78.2 271.29,-143.75 75.68,-65.56 132.42,-150.06 174.02,-254.83 40.4,-104.66 60.55,-230.88 60.55,-379.63l0 -258.65c0,-147.56 -15.14,-277.48 -44.1,-391.07 -29.09,-113.47 -78.19,-209.42 -146.37,-288.81 -68.06,-78.19 -156.38,-138.74 -266.16,-179.14 -109.78,-40.41 -243.39,-60.55 -401.08,-60.55l-184.27 0 0 2003.15 184.27 0zm89.51 2945.49c127.42,0 244.7,-17.65 349.47,-50.54 104.65,-32.78 194.17,-84.51 268.66,-155.07 75.69,-70.68 133.74,-159 174.02,-267.47 40.41,-108.47 60.55,-237.19 60.55,-384.75l0 -491.91c0,-147.68 -13.82,-278.79 -44.1,-393.58 -29.08,-114.78 -78.19,-210.73 -145.05,-287.61 -68.18,-78.19 -156.5,-137.54 -264.97,-177.83 -108.46,-40.41 -240.89,-60.55 -398.58,-60.55l-273.78 0 0 2269.31 273.78 0zm2656.68 -5647.47l2338.68 0 0 754.37 -1381.32 0 0 1888.37 1067.25 0 0 753.06 -1067.25 0 0 2162.03 1419.11 0 0 754.37 -2376.47 0 0 -6312.2zm842.58 -524.8l1185.72 -798.47 476.89 616.82 -1274.05 614.32 -388.56 -432.67zm2225.2 524.8l957.36 0 0 5557.83 1304.32 0 0 754.37 -2261.68 0 0 -6312.2zm4142.54 6371.44c-74.38,0 -160.2,-7.51 -259.84,-23.96 -98.33,-16.33 -199.29,-50.42 -303.94,-102.14 -104.77,-51.73 -208.23,-124.92 -309.07,-219.44 -100.95,-94.64 -191.78,-220.74 -271.28,-377.24 -80.69,-156.38 -145.06,-348.16 -194.28,-576.42 -49.11,-228.37 -74.38,-499.53 -74.38,-814.92l0 -2235.22c0,-317.88 26.46,-590.36 78.19,-814.92 51.73,-225.75 121.1,-415.02 206.92,-570.21 85.7,-153.88 185.46,-276.17 297.62,-367 112.28,-90.82 228.38,-160.19 349.48,-209.42 119.78,-47.91 239.69,-79.5 358.29,-93.33 118.48,-15.13 228.25,-22.76 329.21,-22.76 256.02,0 471.76,35.4 648.41,105.96 175.33,69.37 319.07,165.32 428.85,287.61 108.47,122.41 187.97,264.97 235.88,427.67 47.92,161.38 71.88,334.21 71.88,517.17 0,134.93 -7.51,259.84 -23.96,374.62 -16.45,114.79 -37.79,241.01 -64.37,378.44l-765.69 0 0 -298.93c0,-692.51 -185.34,-1038.17 -557.46,-1038.17 -100.96,0 -187.97,16.33 -262.46,51.73 -74.38,34.09 -134.93,93.33 -184.16,175.33 -49.22,82 -85.82,191.78 -109.77,326.71 -22.65,136.23 -35.28,303.94 -35.28,507.04l0 2859.67c0,196.79 12.63,360.8 35.28,492.03 23.95,129.92 59.35,234.57 107.27,314.07 47.92,78.19 108.46,134.93 181.65,167.82 71.87,33.97 158.88,50.42 259.84,50.42 105.96,0 196.79,-27.77 273.78,-83.31 76.88,-55.43 138.74,-131.12 187.97,-227.07 49.11,-97.02 85.7,-209.3 109.66,-340.53 22.76,-129.92 35.4,-272.47 35.4,-425.16l0 -823.62 -492.03 0 0 -628.26 1422.92 0 0 3196.5 -635.77 0 -103.46 -599.18c-121.1,234.57 -259.84,402.4 -416.22,504.54 -156.5,102.15 -341.84,153.88 -555.08,153.88zm2593.63 -6371.44l957.35 0 0 6312.2 -957.35 0 0 -6312.2zm3395.68 6367.75c-98.34,0 -205.61,-7.63 -320.39,-23.96 -113.47,-16.45 -228.26,-50.54 -343.04,-102.27 -114.9,-51.73 -224.56,-124.79 -329.33,-219.43 -104.65,-94.64 -196.78,-219.56 -276.17,-374.62 -80.81,-155.19 -145.05,-346.97 -193.09,-575.23 -47.91,-228.37 -71.87,-499.53 -71.87,-814.92l0 -2235.22c0,-317.88 25.27,-590.36 74.49,-814.92 49.11,-225.75 113.47,-415.02 195.48,-570.21 80.69,-153.88 175.33,-276.17 281.29,-367 105.97,-90.82 214.43,-160.19 328.02,-209.42 113.47,-47.91 227.06,-79.5 338.03,-93.33 112.28,-15.13 216.93,-22.76 312.76,-22.76 251.14,0 461.75,35.4 629.46,105.96 169.13,69.37 305.37,165.32 407.52,287.61 102.15,122.41 174.02,264.97 218.24,427.67 42.91,161.38 64.24,334.21 64.24,517.17 0,134.93 -6.19,259.84 -20.14,374.62 -13.83,114.79 -34.09,241.01 -61.74,378.44l-775.83 0 0 -321.7c0,-346.85 -37.9,-606.69 -114.78,-779.52 -75.68,-171.52 -187.96,-258.65 -335.52,-258.65 -89.64,0 -166.52,17.76 -233.38,51.73 -66.87,35.4 -121.1,93.33 -166.52,175.33 -44.22,83.32 -78.19,191.79 -100.95,328.02 -23.96,134.93 -35.28,304.06 -35.28,505.86l0 2882.31c0,196.79 8.82,360.8 27.77,492.03 18.83,129.92 49.11,234.57 90.82,314.07 41.6,78.19 95.83,134.93 164.01,167.82 68.06,33.97 150.07,50.42 245.9,50.42 61.86,0 121.1,-13.83 176.64,-42.91 56.74,-27.77 107.15,-73.18 150.06,-132.42 42.91,-60.55 78.19,-137.55 103.46,-229.57 26.46,-92.13 39.1,-201.91 39.1,-326.7l0 -618.14 875.47 0 0 584.05c0,508.35 -114.79,881.78 -346.85,1123.98 -232.19,240.89 -563.9,363.18 -997.88,365.81zm2794.11 -6367.75l1101.22 0 1166.78 6312.2 -967.49 0 -174.02 -1131.49 -1152.95 0 -166.51 1131.49 -971.3 0 1164.27 -6312.2zm1015.4 4460.43l-442.68 -3144.78 -41.72 0 -446.49 3144.78 930.89 0zm-21417.95 2539.87l6936.65 0 0 343.99 -6936.65 0 0 -343.99z"/>
 </g>
</svg>
